<svg width="64" height="64" viewBox="0 0 64 64" fill="none" xmlns="http://www.w3.org/2000/svg">
<rect width="64" height="64" rx="32" fill="white"/>
<g clip-path="url(#clip0_4_1501)">
<path d="M32 12C28.1167 12 24.9688 15.148 24.9688 19.0312C24.9688 22.9145 28.1167 26.0625 32 26.0625C35.8833 26.0625 39.0312 22.9145 39.0312 19.0312C39.0312 15.148 35.8833 12 32 12ZM35.2279 17.9264L31.3609 21.7934C30.9033 22.251 30.1613 22.251 29.7037 21.7934L28.0463 20.1361C27.5887 19.6784 27.5887 18.9365 28.0463 18.4788C28.504 18.0212 29.2459 18.0212 29.7036 18.4788L30.5323 19.3075L33.5706 16.2691C34.0283 15.8115 34.7702 15.8115 35.2279 16.2691C35.6855 16.7268 35.6855 17.4688 35.2279 17.9264Z" fill="#44D8F4"/>
<path d="M14.3438 45.6727H13.1719C12.5247 45.6727 12 45.148 12 44.5009V29.6571C12 29.0099 12.5247 28.4852 13.1719 28.4852H14.3438C14.9909 28.4852 15.5156 29.0099 15.5156 29.6571V44.5009C15.5156 45.148 14.9909 45.6727 14.3438 45.6727Z" fill="#44D8F4"/>
<path d="M50.8281 45.6727H49.6562C49.0091 45.6727 48.4844 45.148 48.4844 44.5009V29.6571C48.4844 29.0099 49.0091 28.4852 49.6562 28.4852H50.8281C51.4753 28.4852 52 29.0099 52 29.6571V44.5009C52 45.148 51.4753 45.6727 50.8281 45.6727Z" fill="#44D8F4"/>
<path d="M40.5188 43.3807L35.0451 37.2768C34.5661 36.7426 33.7848 36.6033 33.1507 36.939L28.0308 39.6495C27.2779 40.0481 26.4312 40.2587 25.5824 40.2587C23.6636 40.2587 21.9008 39.2129 20.9821 37.5293C19.6091 35.0131 20.5305 31.8336 23.0362 30.4415L23.7451 30.0478H17.8591V43.5634L27.5473 50.8294C28.5777 51.6021 29.8171 52 31.0661 52C31.7185 52 32.3734 51.8894 33.0025 51.6688L38.5248 49.2729L40.0187 48.37C40.7257 47.9427 41.2246 47.2405 41.3902 46.4312C41.3906 46.4291 41.3911 46.427 41.3915 46.425C41.6136 45.3299 41.2873 44.1919 40.5188 43.3807Z" fill="#44D8F4"/>
<path d="M28.8751 30.0477C28.676 30.0477 28.4801 30.0985 28.306 30.1952L24.1747 32.4904C22.7849 33.2625 22.2781 35.0111 23.0397 36.4067C23.7985 37.7973 25.5343 38.3194 26.9344 37.5782L31.5147 35.1534C33.417 34.1462 35.7607 34.5641 37.1978 36.1666L42.2453 41.7953C42.9671 42.5669 43.4529 43.5112 43.6715 44.5175C44.5321 44.2817 45.3608 43.9346 46.1406 43.4839V30.0477H28.8751Z" fill="#44D8F4"/>
</g>
<defs>
<clipPath id="clip0_4_1501">
<rect width="40" height="40" fill="white" transform="translate(12 12)"/>
</clipPath>
</defs>
</svg>
