<svg width="64" height="64" viewBox="0 0 64 64" fill="none" xmlns="http://www.w3.org/2000/svg">
<rect width="64" height="64" rx="32" fill="white"/>
<path d="M37 15.3334C37.4421 15.3334 37.866 15.509 38.1786 15.8215C38.4911 16.1341 38.6667 16.558 38.6667 17C38.6667 17.4421 38.4911 17.866 38.1786 18.1786C37.866 18.4911 37.4421 18.6667 37 18.6667V28.1234L37.1034 28.1734C38.7859 28.991 40.2472 30.2013 41.364 31.7021C42.4807 33.2029 43.2202 34.9502 43.52 36.7967L43.5817 37.2334C43.848 39.3858 43.509 41.5698 42.6028 43.5403C41.6966 45.5108 40.2591 47.1896 38.4517 48.3884C38.1786 48.5698 37.858 48.6666 37.53 48.6667H26.4717C26.1445 48.6668 25.8246 48.5706 25.5517 48.39C23.8354 47.2538 22.4503 45.6838 21.5369 43.8393C20.6235 41.9948 20.2143 39.9415 20.3509 37.8878C20.4875 35.834 21.165 33.853 22.3146 32.1457C23.4642 30.4384 25.0451 29.0656 26.8967 28.1667L27 28.12V18.6667C26.558 18.6667 26.1341 18.4911 25.8215 18.1786C25.509 17.866 25.3334 17.4421 25.3334 17C25.3334 16.558 25.509 16.1341 25.8215 15.8215C26.1341 15.509 26.558 15.3334 27 15.3334H37ZM33.6667 18.6667H30.3334V29.2334C30.3335 29.5425 30.2477 29.8455 30.0855 30.1086C29.9234 30.3717 29.6912 30.5846 29.415 30.7234L29.2217 30.805C28.1432 31.1855 27.1545 31.7839 26.3173 32.5629C25.48 33.342 24.8121 34.285 24.355 35.3334H39.6417C39.1847 34.286 38.5171 33.3438 37.6804 32.5653C36.8438 31.7869 35.856 31.1888 34.7784 30.8084C34.4533 30.6936 34.1718 30.4808 33.9727 30.1993C33.7736 29.9178 33.6667 29.5815 33.6667 29.2367V18.6667Z" fill="#44D8F4"/>
</svg>
