<svg width="147" height="31" viewBox="0 0 147 31" fill="none" xmlns="http://www.w3.org/2000/svg">
<g clip-path="url(#clip0_4_983)">
<path d="M-0.0231934 0.000976562C-0.0231934 0.907808 0.695612 1.64671 1.57778 1.64671H26.9973C27.8795 1.64671 28.5983 0.907808 28.5983 0.000976562H-0.0231934Z" fill="#2678D9"/>
<path d="M2.35376 3.31787C2.35376 4.2247 3.07257 4.9636 3.95474 4.9636V26.0558V26.694C3.95474 27.1306 4.28147 27.4664 4.70621 27.4664H7.3854C8.98637 27.4664 10.522 27.9702 11.8289 28.8771L14.4428 30.6907L16.5012 29.1122C17.8734 28.0374 19.5724 27.4664 21.2714 27.4664H23.8526C24.2773 27.4664 24.6041 27.1306 24.6041 26.694V26.0558V4.9636H24.8001C25.6823 4.9636 26.4011 4.2247 26.4011 3.31787H2.35376ZM15.521 27.8023L14.3774 28.6756L12.7111 27.5C11.1428 26.3917 9.28043 25.8207 7.35272 25.8207H5.52304V20.6484H7.35272C8.9537 20.6484 10.4893 21.1522 11.7962 22.059L14.4101 23.8727L16.4685 22.2942C17.8407 21.2194 19.5397 20.6484 21.2387 20.6484H22.9704V25.8207H21.2387C19.213 25.8207 17.1873 26.526 15.521 27.8023ZM13.4952 14.3006V21.2194L12.7438 20.682C12.2863 20.3461 11.7962 20.0775 11.2735 19.8423V14.3006H13.4952ZM15.0962 14.3006H17.1546V19.9696L17.3507 19.8759C16.6972 20.1782 16.1091 20.5477 15.521 20.9843L15.0635 21.3201V14.3006H15.0962ZM23.0031 19.0027H21.2714C20.4219 19.0027 19.5724 19.137 18.7556 19.3721V14.3342H20.0952C20.9774 14.3342 21.6962 13.5953 21.6962 12.6885H6.73194C6.73194 13.5953 7.45074 14.3342 8.33291 14.3342H9.67251V19.3386C8.92103 19.137 8.16955 19.0363 7.3854 19.0363H5.55571V4.9636H23.0031V19.0027Z" fill="#2678D9"/>
<path d="M9.60995 10.3998H10.4268V7.88078H11.701V10.3998H12.8446C13.3347 10.3998 13.7268 10.2654 13.9881 9.99672C14.2495 9.72803 14.3802 9.32499 14.3802 8.8212V8.61968C14.3802 8.14947 14.2495 7.74643 13.9881 7.47774C13.7268 7.20905 13.3347 7.07471 12.8446 7.07471H11.799H11.701H8.72778V7.88078H9.60995V10.3998ZM12.5178 7.88078H12.8119C13.0733 7.88078 13.2367 7.94795 13.3673 8.04871C13.4654 8.14947 13.5307 8.35099 13.5307 8.61968V8.8212C13.5307 9.12347 13.4654 9.32499 13.3673 9.42575C13.2693 9.52651 13.0733 9.59368 12.8119 9.59368H12.5178V7.88078Z" fill="#144176"/>
<path d="M15.7175 7.07471H14.9006V10.3998H15.7175V7.07471Z" fill="#144176"/>
<path d="M16.5951 10.0674C16.7258 10.2018 16.8565 10.2689 17.0198 10.3361C17.1832 10.4033 17.3792 10.4369 17.5753 10.4369C17.7713 10.4369 17.9673 10.4033 18.1307 10.3361C18.2941 10.2689 18.4248 10.1682 18.5555 10.0674C18.6862 9.93307 18.7515 9.79872 18.8168 9.63079C18.8822 9.46286 18.9149 9.26134 18.9149 9.05982V7.11182H18.098V9.05982C18.098 9.29493 18.0654 9.46286 17.9673 9.53003C17.8693 9.63079 17.7713 9.66438 17.6079 9.66438C17.4446 9.66438 17.3139 9.63079 17.2485 9.53003C17.1505 9.42927 17.1178 9.26134 17.1178 9.05982V7.11182H16.301V9.05982C16.301 9.26134 16.3337 9.46286 16.399 9.63079C16.399 9.79872 16.4644 9.93307 16.5951 10.0674Z" fill="#144176"/>
<path d="M37.1314 4.91748L37.0007 6.093H35.4651V11.3325H33.9948V6.093H32.3938V4.91748H37.1314Z" fill="#144176"/>
<path d="M42.2003 5.64958C42.6904 6.22055 42.9518 7.06021 42.9518 8.13497C42.9518 8.84028 42.8538 9.44484 42.6251 9.94863C42.3963 10.4524 42.0696 10.8555 41.6449 11.1242C41.2201 11.3928 40.73 11.5272 40.1419 11.5272C39.5538 11.5272 39.0637 11.3928 38.639 11.1242C38.2142 10.8555 37.8875 10.486 37.6588 9.98222C37.4301 9.47842 37.332 8.87387 37.332 8.16855C37.332 7.46324 37.4301 6.89227 37.6588 6.38848C37.8875 5.88468 38.2142 5.48165 38.639 5.21296C39.0637 4.94427 39.5538 4.80992 40.1419 4.80992C41.0241 4.77634 41.7102 5.04503 42.2003 5.64958ZM39.1617 6.42207C38.9657 6.79152 38.835 7.36248 38.835 8.13497C38.835 8.94104 38.933 9.51201 39.1617 9.84787C39.3578 10.2173 39.6845 10.3853 40.1092 10.3853C40.534 10.3853 40.8607 10.2173 41.0568 9.84787C41.2528 9.47842 41.3835 8.90745 41.3835 8.13497C41.3835 7.36248 41.2855 6.75793 41.0568 6.42207C40.8607 6.0862 40.534 5.88468 40.1092 5.88468C39.6845 5.88468 39.3904 6.05262 39.1617 6.42207Z" fill="#144176"/>
<path d="M47.2294 4.96783C47.5888 5.10217 47.8828 5.30369 48.1769 5.57238L47.4907 6.41204C47.066 6.04259 46.6086 5.87466 46.1185 5.87466C45.8571 5.87466 45.6611 5.94183 45.4977 6.04259C45.3343 6.14335 45.269 6.31128 45.269 6.5128C45.269 6.64714 45.3017 6.78149 45.367 6.84866C45.4323 6.94942 45.563 7.01659 45.7264 7.11735C45.8898 7.18453 46.1512 7.28529 46.4779 7.41963C47.0987 7.62115 47.5888 7.88984 47.8828 8.19212C48.1769 8.49439 48.3402 8.93102 48.3402 9.50198C48.3402 9.90502 48.2422 10.2409 48.0462 10.5767C47.8501 10.879 47.5561 11.1141 47.1967 11.2821C46.8373 11.45 46.3799 11.5508 45.8571 11.5508C45.3343 11.5508 44.9096 11.4836 44.5175 11.3156C44.1254 11.1477 43.7987 10.9126 43.5046 10.6439L44.2561 9.80426C44.4848 10.0058 44.7462 10.1737 45.0076 10.2745C45.269 10.3752 45.5304 10.4424 45.8244 10.4424C46.1185 10.4424 46.3799 10.3752 46.5432 10.2409C46.7066 10.1065 46.8046 9.90502 46.8046 9.66992C46.8046 9.50198 46.7719 9.36764 46.7066 9.26688C46.6412 9.16612 46.5106 9.06536 46.3799 8.9646C46.2165 8.86384 45.9878 8.79667 45.6937 8.69591C45.0076 8.49439 44.5175 8.2257 44.2234 7.88984C43.9294 7.55398 43.7987 7.18453 43.7987 6.68073C43.7987 6.31128 43.8967 5.97542 44.0928 5.70673C44.2888 5.43804 44.5502 5.20293 44.9096 5.06859C45.2363 4.93424 45.6284 4.83348 46.0858 4.83348C46.4779 4.76631 46.87 4.83348 47.2294 4.96783Z" fill="#144176"/>
<path d="M52.66 11.3325V8.57839H50.7977V11.3325H49.3274V4.91748H50.7977V7.40287H52.66V4.91748H54.1303V11.3325H52.66Z" fill="#144176"/>
<path d="M56.9705 4.91748V11.3325H55.5002V4.91748H56.9705ZM60.5319 4.91748L58.5388 7.80591L60.6953 11.3325H58.9963L57.0032 7.90666L58.9963 4.91748H60.5319Z" fill="#144176"/>
<path d="M65.164 4.91748L65.0007 5.99224H62.8116V7.53722H64.7393V8.61198H62.8116V10.2577H65.164V11.3661H61.3413V4.91748H65.164Z" fill="#144176"/>
<path d="M71.0456 11.3325H69.1506L67.3536 6.36169C67.4189 6.86549 67.4516 7.26852 67.4842 7.63797C67.5169 8.00742 67.5496 8.44405 67.5496 8.98143V11.3325H66.2427V4.91748H68.0724L69.902 9.88826C69.7714 9.0486 69.706 8.24253 69.706 7.50363V4.91748H71.0456V11.3325Z" fill="#144176"/>
<path d="M76.6697 4.91748L76.539 6.093H75.0033V11.3325H73.5004V6.093H71.8994V4.91748H76.6697Z" fill="#144176"/>
<path d="M86.1364 5.62279C86.7245 6.093 87.0185 6.89908 87.0185 8.10818C87.0185 9.28371 86.7245 10.1234 86.169 10.6272C85.5809 11.0974 84.8294 11.3661 83.9146 11.3661H82.0522V4.91748H83.7839C84.7314 4.91748 85.5156 5.15259 86.1364 5.62279ZM83.4899 6.02583V10.2241H83.98C84.47 10.2241 84.8294 10.0562 85.0908 9.75392C85.3522 9.45164 85.4829 8.88067 85.4829 8.0746C85.4829 7.53722 85.4176 7.10059 85.2869 6.79832C85.1562 6.49604 84.9928 6.29452 84.7641 6.16018C84.5354 6.05942 84.274 5.99224 83.9473 5.99224H83.4899V6.02583Z" fill="#144176"/>
<path d="M91.2671 11.3325L90.9403 9.95543H89.1107L88.7839 11.3325H87.2483L89.1433 4.91748H90.9403L92.8354 11.3325H91.2671ZM89.372 8.84708H90.679L90.0255 6.02583L89.372 8.84708Z" fill="#144176"/>
<path d="M97.9687 4.91748L96.2371 11.3325H94.4074L92.6104 4.91748H94.1786L95.3549 10.1569L96.4658 4.91748H97.9687Z" fill="#144176"/>
<path d="M100.065 4.91748V10.1234H102.483L102.319 11.3325H98.562V4.91748H100.065Z" fill="#144176"/>
<path d="M106.657 11.3325L106.33 9.95543H104.533L104.207 11.3325H102.671L104.566 4.91748H106.363L108.258 11.3325H106.657ZM104.795 8.84708H106.102L105.448 6.02583L104.795 8.84708Z" fill="#144176"/>
<path d="M112.697 4.91748L112.566 6.093H111.03V11.3325H109.56V6.093H107.959V4.91748H112.697Z" fill="#144176"/>
<path d="M34.3616 16.0288V22.4438H32.8914V16.0288H34.3616Z" fill="#144176"/>
<path d="M40.5595 22.177C40.8536 22.2778 41.115 22.4121 41.3764 22.6136L40.4942 23.8228C40.1675 23.4197 39.8081 23.1174 39.4487 22.9159C39.0893 22.7144 38.6318 22.5801 38.1091 22.5801C37.5536 22.5801 37.0635 22.4457 36.6715 22.177C36.2794 21.9083 35.9527 21.5389 35.7239 21.0351C35.4952 20.5313 35.3972 19.9267 35.3972 19.2214C35.3972 18.5161 35.4952 17.9451 35.7239 17.4414C35.9527 16.9376 36.2794 16.5345 36.7041 16.2658C37.1289 15.9971 37.619 15.8628 38.2071 15.8628C39.0893 15.8628 39.7754 16.1651 40.2982 16.736C40.7883 17.307 41.0496 18.1467 41.0496 19.2214C41.0496 20.5313 40.5595 21.4717 39.5794 22.0091C39.9388 22.0427 40.2982 22.0763 40.5595 22.177ZM37.2596 20.9679C37.4556 21.3374 37.7823 21.5053 38.2071 21.5053C38.6318 21.5053 38.9586 21.3374 39.1546 20.9679C39.3506 20.5985 39.4813 20.0275 39.4813 19.255C39.4813 18.4825 39.3833 17.878 39.1546 17.5421C38.9586 17.2062 38.6318 17.0047 38.2071 17.0047C37.7823 17.0047 37.4556 17.1727 37.2596 17.5421C37.0635 17.9116 36.9328 18.4825 36.9328 19.255C36.9328 20.0275 37.0635 20.5985 37.2596 20.9679Z" fill="#144176"/>
<path d="M46.0127 16.0288L45.882 17.2043H44.3464V22.4438H42.8761V17.2043H41.2751V16.0288H46.0127Z" fill="#144176"/>
<path d="M48.2733 16.0288V22.4438H46.803V16.0288H48.2733Z" fill="#144176"/>
<path d="M52.8126 16.0606C53.172 16.1949 53.4661 16.3965 53.7601 16.6652L53.074 17.5048C52.6492 17.1354 52.1918 16.9674 51.7017 16.9674C51.4403 16.9674 51.2443 17.0346 51.0809 17.1354C50.9176 17.2361 50.8522 17.4041 50.8522 17.6056C50.8522 17.7399 50.8849 17.8743 50.9502 17.9414C51.0156 18.0422 51.1463 18.1094 51.3097 18.2101C51.473 18.2773 51.7344 18.3781 52.0611 18.5124C52.6819 18.7139 53.172 18.9826 53.4661 19.2849C53.7601 19.5872 53.9235 20.0238 53.9235 20.5948C53.9235 20.9978 53.8255 21.3337 53.6294 21.6695C53.4334 21.9718 53.1393 22.2069 52.7799 22.3748C52.4205 22.5428 51.9631 22.6435 51.4403 22.6435C50.9176 22.6435 50.4928 22.5763 50.1007 22.4084C49.7087 22.2405 49.3819 22.0054 49.0879 21.7367L49.8394 20.897C50.0681 21.0985 50.3295 21.2665 50.5908 21.3672C50.8522 21.468 51.1136 21.5352 51.4077 21.5352C51.7017 21.5352 51.9631 21.468 52.1265 21.3337C52.2898 21.1993 52.3879 20.9978 52.3879 20.7627C52.3879 20.5948 52.3552 20.4604 52.2898 20.3596C52.2245 20.2589 52.0938 20.1581 51.9631 20.0574C51.7997 19.9566 51.571 19.8894 51.277 19.7887C50.5908 19.5872 50.1008 19.3185 49.8067 18.9826C49.5126 18.6467 49.3819 18.2773 49.3819 17.7735C49.3819 17.4041 49.48 17.0682 49.676 16.7995C49.872 16.5308 50.1334 16.2957 50.4928 16.1614C50.8196 16.027 51.2116 15.9263 51.6691 15.9263C52.0611 15.8591 52.4859 15.9263 52.8126 16.0606Z" fill="#144176"/>
<path d="M59.5023 16.7668C59.9924 17.3378 60.2538 18.1775 60.2538 19.2522C60.2538 19.9575 60.1558 20.5621 59.9271 21.0659C59.6983 21.5697 59.3716 21.9727 58.9469 22.2414C58.5221 22.5101 58.032 22.6444 57.4439 22.6444C56.8558 22.6444 56.3657 22.5101 55.941 22.2414C55.5162 21.9727 55.1895 21.6033 54.9608 21.0995C54.7321 20.5957 54.634 19.9911 54.634 19.2858C54.634 18.5805 54.7321 18.0095 54.9608 17.5057C55.1895 17.0019 55.5162 16.5989 55.941 16.3302C56.3657 16.0615 56.8558 15.9272 57.4439 15.9272C58.3261 15.86 59.0122 16.1623 59.5023 16.7668ZM56.4637 17.5057C56.2677 17.8752 56.137 18.4462 56.137 19.2186C56.137 20.0247 56.235 20.5957 56.4637 20.9315C56.6598 21.301 56.9865 21.4689 57.4112 21.4689C57.836 21.4689 58.1627 21.301 58.3588 20.9315C58.5548 20.5621 58.6855 19.9911 58.6855 19.2186C58.6855 18.4462 58.5875 17.8416 58.3588 17.5057C58.1627 17.1699 57.836 16.9684 57.4112 16.9684C56.9865 16.9684 56.6924 17.1699 56.4637 17.5057Z" fill="#144176"/>
<path d="M65.3886 16.7005C65.9767 17.1707 66.2707 17.9768 66.2707 19.1859C66.2707 20.3614 65.9767 21.2011 65.4212 21.7049C64.8331 22.1751 64.0816 22.4438 63.1668 22.4438H61.3044V16.0288H63.0361C64.0163 16.0288 64.8004 16.2639 65.3886 16.7005ZM62.7747 17.1372V21.3355H63.2648C63.7549 21.3355 64.1143 21.1675 64.3757 20.8652C64.6371 20.563 64.7678 19.992 64.7678 19.1859C64.7678 18.6485 64.7024 18.2119 64.5717 17.9096C64.441 17.6074 64.2777 17.4059 64.049 17.2715C63.8203 17.1707 63.5589 17.1036 63.2321 17.1036H62.7747V17.1372Z" fill="#144176"/>
<path d="M68.8367 15.9917V22.4067H67.3665V15.9917H68.8367Z" fill="#144176"/>
<path d="M74.9603 16.0288L72.9673 20.0256V22.4438H71.497V20.0592L69.5039 16.0288H71.1049L72.2484 18.8501L73.392 16.0288H74.9603Z" fill="#144176"/>
<path d="M79.9369 16.7668C80.427 17.3378 80.6883 18.1775 80.6883 19.2522C80.6883 19.9575 80.5903 20.5621 80.3616 21.0659C80.1329 21.5697 79.8062 21.9727 79.3814 22.2414C78.9567 22.5101 78.4666 22.6444 77.8785 22.6444C77.2904 22.6444 76.8003 22.5101 76.3755 22.2414C75.9508 21.9727 75.624 21.6033 75.3953 21.0995C75.1666 20.5957 75.0686 19.9911 75.0686 19.2858C75.0686 18.5805 75.1666 18.0095 75.3953 17.5057C75.624 17.0019 75.9508 16.5989 76.3755 16.3302C76.8003 16.0615 77.2904 15.9272 77.8785 15.9272C78.7606 15.86 79.4468 16.1623 79.9369 16.7668ZM76.8983 17.5057C76.7022 17.8752 76.5716 18.4462 76.5716 19.2186C76.5716 20.0247 76.6696 20.5957 76.8983 20.9315C77.0943 21.301 77.4211 21.4689 77.8458 21.4689C78.2705 21.4689 78.5973 21.301 78.7933 20.9315C78.9894 20.5621 79.12 19.9911 79.12 19.2186C79.12 18.4462 79.022 17.8416 78.7933 17.5057C78.5973 17.1699 78.2705 16.9684 77.8458 16.9684C77.4211 16.9684 77.127 17.1699 76.8983 17.5057Z" fill="#144176"/>
<path d="M85.6841 16.0288L85.5534 17.2043H84.0178V22.4438H82.5475V17.2043H80.9465V16.0288H85.6841Z" fill="#144176"/>
<path d="M95.8429 20.3279C95.8429 20.7645 95.7449 21.1675 95.5815 21.5034C95.3855 21.8392 95.1241 22.1079 94.7647 22.3095C94.4053 22.511 93.9479 22.6117 93.4251 22.6117C92.641 22.6117 92.0202 22.4102 91.6281 22.0072C91.2034 21.6041 91.0073 21.0332 91.0073 20.3279V16.0288H92.4776V20.2607C92.4776 20.6637 92.5429 20.966 92.7063 21.1675C92.8697 21.369 93.0984 21.4698 93.4251 21.4698C93.7518 21.4698 94.0132 21.369 94.1439 21.1675C94.3073 20.966 94.3726 20.6637 94.3726 20.2607V16.0288H95.8429V20.3279Z" fill="#144176"/>
<path d="M101.891 22.4438H99.9958L98.1988 17.473C98.2641 17.9768 98.2968 18.3799 98.3295 18.7493C98.3621 19.1188 98.3948 19.5554 98.3948 20.0928V22.4438H97.0879V16.0288H98.9176L100.747 20.9996C100.617 20.1599 100.551 19.3539 100.551 18.615V16.0288H101.891V22.4438Z" fill="#144176"/>
<path d="M104.694 16.0288V22.4438H103.224V16.0288H104.694Z" fill="#144176"/>
<path d="M110.701 16.0288L108.969 22.4438H107.14L105.343 16.0288H106.911L108.087 21.2683L109.198 16.0288H110.701Z" fill="#144176"/>
<path d="M115.154 16.0288L114.991 17.1036H112.802V18.6485H114.729V19.7233H112.802V21.369H115.154V22.4774H111.331V16.0288H115.154Z" fill="#144176"/>
<path d="M118.291 19.992H117.703V22.4438H116.233V16.0288H118.291C119.141 16.0288 119.794 16.1967 120.219 16.499C120.644 16.8013 120.872 17.3051 120.872 17.9768C120.872 18.3799 120.774 18.7493 120.578 19.018C120.382 19.2867 120.088 19.5218 119.663 19.7233L121.232 22.4438H119.565L118.291 19.992ZM117.736 18.9508H118.356C118.683 18.9508 118.945 18.8837 119.108 18.7157C119.271 18.5478 119.369 18.3127 119.369 17.9768C119.369 17.6745 119.271 17.4394 119.108 17.3051C118.945 17.1707 118.65 17.1036 118.291 17.1036H117.768V18.9508H117.736Z" fill="#144176"/>
<path d="M125.117 16.0606C125.476 16.1949 125.77 16.3965 126.064 16.6652L125.378 17.5048C124.953 17.1354 124.496 16.9674 124.006 16.9674C123.744 16.9674 123.548 17.0346 123.385 17.1354C123.222 17.2361 123.156 17.4041 123.156 17.6056C123.156 17.7399 123.189 17.8743 123.254 17.9414C123.32 18.0422 123.45 18.1094 123.614 18.2101C123.777 18.2773 124.038 18.3781 124.365 18.5124C124.986 18.7139 125.476 18.9826 125.77 19.2849C126.064 19.5872 126.227 20.0238 126.227 20.5948C126.227 20.9978 126.129 21.3337 125.933 21.6695C125.737 21.9718 125.443 22.2069 125.084 22.3748C124.725 22.5428 124.267 22.6435 123.744 22.6435C123.222 22.6435 122.797 22.5763 122.405 22.4084C122.013 22.2405 121.686 22.0054 121.392 21.7367L122.143 20.897C122.372 21.0985 122.633 21.2665 122.895 21.3672C123.156 21.468 123.418 21.5352 123.712 21.5352C124.006 21.5352 124.267 21.468 124.43 21.3337C124.594 21.1993 124.692 20.9978 124.692 20.7627C124.692 20.5948 124.659 20.4604 124.594 20.3596C124.528 20.2589 124.398 20.1581 124.267 20.0574C124.104 19.9566 123.875 19.8894 123.581 19.7887C122.895 19.5872 122.405 19.3185 122.111 18.9826C121.817 18.6803 121.686 18.2773 121.686 17.7735C121.686 17.4041 121.784 17.0682 121.98 16.7995C122.176 16.5308 122.437 16.2957 122.797 16.1614C123.124 16.027 123.516 15.9263 123.973 15.9263C124.365 15.8591 124.757 15.9263 125.117 16.0606Z" fill="#144176"/>
<path d="M128.685 16.0288V22.4438H127.215V16.0288H128.685Z" fill="#144176"/>
<path d="M134.311 16.0288L134.18 17.2043H132.645V22.4438H131.174V17.2043H129.573V16.0288H134.311Z" fill="#144176"/>
<path d="M138.868 16.0288L138.705 17.1036H136.516V18.6485H138.444V19.7233H136.516V21.369H138.868V22.4774H135.046V16.0288H138.868Z" fill="#144176"/>
<path d="M144.224 16.0288L144.093 17.2043H142.558V22.4438H141.087V17.2043H139.486V16.0288H144.224Z" fill="#144176"/>
<path d="M146.448 16.0288V22.4438H144.977V16.0288H146.448Z" fill="#144176"/>
</g>
<defs>
<clipPath id="clip0_4_983">
<rect width="146.473" height="30.6979" fill="white"/>
</clipPath>
</defs>
</svg>
