<svg width="64" height="64" viewBox="0 0 64 64" fill="none" xmlns="http://www.w3.org/2000/svg">
<rect width="64" height="64" rx="32" fill="#44D8F4"/>
<path fill-rule="evenodd" clip-rule="evenodd" d="M25.7481 41.9974V41.2211C25.7481 40.7725 25.5079 40.3573 25.1176 40.1351L25.1121 40.1323C21.0069 37.7645 18.2489 33.326 18.2489 28.2487C18.2489 20.6606 24.4094 14.5001 31.9975 14.5001C39.5856 14.5001 45.7461 20.6606 45.7461 28.2487C45.7461 33.3246 42.9908 37.7617 38.894 40.1434C38.8913 40.1448 38.8885 40.1462 38.8843 40.1476C38.4996 40.3684 38.2621 40.7767 38.2621 41.2211V41.2405C38.258 41.4752 38.2552 41.7293 38.2524 41.9974H25.7481ZM26.7397 29.7569L30.4893 33.5066C30.7365 33.7538 31.0754 33.8871 31.4239 33.8718C31.7739 33.8579 32.1003 33.6968 32.3266 33.4302L39.2009 25.306C39.6467 24.7796 39.5815 23.9908 39.0537 23.5451C38.5274 23.0993 37.7386 23.1645 37.2928 23.6923L31.2962 30.779L28.5062 27.9904C28.0187 27.5016 27.2271 27.5016 26.7397 27.9904C26.2508 28.4779 26.2508 29.2695 26.7397 29.7569ZM38.2469 44.4971C38.2469 47.258 36.0082 49.4966 33.2474 49.4966H30.7476C27.9868 49.4966 25.7481 47.258 25.7481 44.4971H38.2469Z" fill="white"/>
</svg>
